<svg width="28" height="28" viewBox="0 0 28 28" fill="none" xmlns="http://www.w3.org/2000/svg">
<g clip-path="url(#clip0_2_342)">
<path d="M27.4531 20.3919H21.5031C21.333 19.8926 20.9377 19.4972 20.4384 19.3277V16.5025C21.2007 15.5996 24.2714 11.8333 24.2714 9.73875C24.2714 7.32375 22.3065 5.35938 19.8915 5.35938C17.477 5.35938 15.5121 7.32375 15.5121 9.73875C15.5121 11.8333 18.5823 15.5996 19.3446 16.5025V19.3277C18.8459 19.4972 18.4505 19.8926 18.2804 20.3919H9.71961C9.54953 19.8926 9.15414 19.4972 8.65539 19.3277V16.5025C9.41773 15.5996 12.4879 11.8333 12.4879 9.73875C12.4879 7.32375 10.523 5.35938 8.10852 5.35938C5.69352 5.35938 3.72859 7.32375 3.72859 9.73875C3.72859 11.8333 6.7993 15.5996 7.56164 16.5025V19.3277C7.06234 19.4972 6.66695 19.8926 6.49688 20.3919H0.546875C0.245 20.3919 0 20.6369 0 20.9388C0 21.2406 0.245 21.4856 0.546875 21.4856H6.49688C6.72547 22.1566 7.36094 22.6406 8.10852 22.6406C8.85555 22.6406 9.49102 22.1566 9.71961 21.4856H18.2804C18.509 22.1566 19.1445 22.6406 19.8915 22.6406C20.6391 22.6406 21.2745 22.1566 21.5031 21.4856H27.4531C27.755 21.4856 28 21.2406 28 20.9388C28 20.6369 27.755 20.3919 27.4531 20.3919ZM6.14414 9.61187C6.14414 8.52852 7.02516 7.6475 8.10852 7.6475C9.19133 7.6475 10.0729 8.52852 10.0729 9.61187C10.0729 10.6952 9.19133 11.5762 8.10852 11.5762C7.02516 11.5762 6.14414 10.6952 6.14414 9.61187ZM8.10852 21.5469C7.77383 21.5469 7.50148 21.2751 7.50039 20.9409V20.9366C7.50148 20.6024 7.77383 20.3306 8.10852 20.3306C8.44375 20.3306 8.71664 20.6035 8.71664 20.9388C8.71664 21.274 8.44375 21.5469 8.10852 21.5469ZM17.9271 9.61187C17.9271 8.52852 18.8087 7.6475 19.8915 7.6475C20.9748 7.6475 21.8559 8.52852 21.8559 9.61187C21.8559 10.6952 20.9748 11.5762 19.8915 11.5762C18.8087 11.5762 17.9271 10.6952 17.9271 9.61187ZM20.4996 20.9409C20.4985 21.2751 20.2262 21.5469 19.8915 21.5469C19.5563 21.5469 19.2834 21.274 19.2834 20.9388C19.2834 20.6035 19.5563 20.3306 19.8915 20.3306C20.2262 20.3306 20.4985 20.6024 20.4996 20.9366V20.9409Z" fill="black"/>
</g>
<defs>
<clipPath id="clip0_2_342">
<rect width="28" height="28" fill="white"/>
</clipPath>
</defs>
</svg>
