<?xml version="1.0" encoding="UTF-8"?>
<svg id="Layer_1" data-name="Layer 1" xmlns="http://www.w3.org/2000/svg" viewBox="0 0 32 32">
  <defs>
    <style>
      .cls-1 {
        fill: #fff;
      }

      .cls-2 {
        fill: #ed2024;
      }
    </style>
  </defs>
  <rect class="cls-2" x="-3.07" y="-3.07" width="38.14" height="38.14"/>
  <g>
    <g>
      <polygon class="cls-1" points="4.39 11.35 4.93 11.35 4.93 9.08 4.78 8.79 6.09 8.79 6.09 8.28 3.23 8.28 3.23 8.79 4.39 8.79 4.39 11.35"/>
      <polygon class="cls-1" points="6.95 10.34 6.8 10.05 8.71 10.05 8.71 11.35 9.26 11.35 9.26 8.28 8.71 8.28 8.71 9.54 6.95 9.54 6.95 8.28 6.41 8.28 6.41 11.35 6.95 11.35 6.95 10.34"/>
      <polygon class="cls-1" points="9.76 11.35 13.21 11.35 13.21 10.83 10.31 10.83 10.31 10.05 12.94 10.05 12.94 9.54 10.31 9.54 10.31 9.08 10.15 8.79 13.21 8.79 13.21 8.28 9.76 8.28 9.76 11.35"/>
    </g>
    <g>
      <path class="cls-1" d="M5.53,15.61h1.77l-.16.29v.58c-.35.21-.73.31-1.18.31-1.15,0-1.86-.64-1.86-1.66s.71-1.65,1.8-1.65c.49,0,.92.13,1.33.4l.2.14.36-.75-.15-.1c-.48-.34-1.07-.51-1.74-.51-1.62,0-2.67.98-2.67,2.49s1.06,2.47,2.7,2.47c.78,0,1.46-.22,1.98-.65l.08-.06v-2.1h-2.46v.8Z"/>
      <polygon class="cls-1" points="10.56 14.48 10.16 14.19 10.31 14.19 9.01 12.66 7.9 12.66 10.13 15.28 10.13 17.61 10.98 17.61 10.98 15.28 13.21 12.66 12.12 12.66 10.56 14.48"/>
      <polygon class="cls-1" points="16.14 16.21 14.42 12.66 13.44 12.66 13.44 17.61 14.28 17.61 14.28 14.57 14.12 14.27 14.42 14.57 15.89 17.61 16.36 17.61 17.83 14.57 17.82 14.26 17.98 14.57 17.98 17.61 18.83 17.61 18.83 12.66 17.85 12.66 16.14 16.21"/>
    </g>
    <g>
      <path class="cls-1" d="M7.19,21.24c.29-.23.44-.56.44-.98,0-.85-.6-1.34-1.64-1.34h-2.76v4.8h2.85c1.08,0,1.69-.5,1.69-1.38,0-.5-.2-.87-.59-1.11ZM5.96,19.72c.72,0,.81.31.81.57,0,.15,0,.59-.78.59h-1.91v-.88l-.16-.29h2.03ZM6.04,22.92h-1.95v-.93l-.16-.29h2.13c.74,0,.85.31.85.62,0,.26-.09.61-.87.61Z"/>
      <path class="cls-1" d="M12.64,20.38c0-.91-.6-1.46-1.6-1.46h-2.83v4.8h.86v-1.87h1.55l1.39,1.87h1.05l-1.44-1.94c.65-.18,1.02-.68,1.02-1.4ZM9.07,21.05v-1.03l-.16-.29h2.04c.73,0,.83.33.83.66s-.1.67-.83.67h-1.88Z"/>
      <path class="cls-1" d="M15.82,18.92l-2.31,4.8h.93l.59-1.24h2.27l.6,1.24h.94l-2.31-4.8h-.7ZM15.41,21.68l.62-1.29-.02-.29.29.29.61,1.29h-1.5Z"/>
      <polygon class="cls-1" points="22.88 22.25 20.18 18.92 19.28 18.92 19.28 23.72 20.12 23.72 20.12 20.47 19.96 20.17 20.36 20.47 23 23.72 23.72 23.72 23.72 18.92 22.88 18.92 22.88 22.25"/>
      <path class="cls-1" d="M26.3,18.92h-2.14v4.8h2.14c1.49,0,2.46-.94,2.46-2.4s-.97-2.4-2.46-2.4ZM26.25,22.92h-1.23v-2.91l-.16-.29h1.39c1.03,0,1.65.6,1.65,1.6s-.62,1.6-1.65,1.6Z"/>
    </g>
  </g>
</svg>