<?xml version="1.0" encoding="utf-8"?>
<!-- Generator: Adobe Illustrator 28.2.0, SVG Export Plug-In . SVG Version: 6.00 Build 0)  -->
<svg version="1.1" id="Layer_1" xmlns="http://www.w3.org/2000/svg" xmlns:xlink="http://www.w3.org/1999/xlink" x="0px" y="0px"
	 viewBox="0 0 250 60" style="enable-background:new 0 0 250 60;" xml:space="preserve">
<style type="text/css">
	.st0{fill:#FFFFFF;}
</style>
<g>
	<g>
		<g>
			<g>
				<g>
					<path class="st0" d="M121.35,43.4c1.68-1.3,2.55-3.21,2.55-5.62c0-4.86-3.43-7.65-9.42-7.65H98.65V57.6H115
						c6.18,0,9.72-2.87,9.72-7.88C124.72,46.89,123.57,44.72,121.35,43.4z M114.33,34.72c4.15,0,4.68,1.76,4.68,3.29
						c0,0.84,0,3.4-4.49,3.4h-10.96v-5.02l-0.9-1.67H114.33z M114.78,53.02h-11.22v-5.35l-0.9-1.67h12.23
						c4.28,0,4.86,1.79,4.86,3.54C119.75,51.03,119.23,53.02,114.78,53.02z"/>
					<path class="st0" d="M152.71,38.48c0-5.23-3.43-8.35-9.2-8.35h-16.25V57.6h4.91V46.88h8.91l8,10.72h6.05l-8.29-11.11
						C150.6,45.48,152.71,42.62,152.71,38.48z M132.18,42.29v-5.91l-0.89-1.67h11.71c4.19,0,4.75,1.91,4.75,3.77
						c0,1.89-0.56,3.81-4.75,3.81H132.18z"/>
					<path class="st0" d="M170.96,30.13L157.68,57.6h5.32l3.4-7.11h13.02l3.44,7.11h5.4l-13.28-27.47H170.96z M168.6,45.9l3.53-7.39
						l-0.1-1.67l1.69,1.67l3.51,7.39H168.6z"/>
					<polygon class="st0" points="211.54,49.2 196.01,30.13 190.81,30.13 190.81,57.61 195.64,57.61 195.64,38.96 194.74,37.28 
						197.01,38.96 212.21,57.61 216.37,57.61 216.37,30.13 211.54,30.13 					"/>
					<path class="st0" d="M231.19,30.13h-12.27V57.6h12.27c8.58,0,14.14-5.39,14.14-13.74S239.77,30.13,231.19,30.13z M230.9,53.02
						h-7.08V36.39l-0.9-1.67h7.98c5.91,0,9.45,3.42,9.45,9.15S236.81,53.02,230.9,53.02z"/>
				</g>
			</g>
			<g>
				<path class="st0" d="M17.32,46.56h9.87l-0.87,1.62v3.24c-1.97,1.16-4.07,1.7-6.57,1.7c-6.4,0-10.37-3.53-10.37-9.22
					c0-5.56,3.93-9.15,10.02-9.15c2.72,0,5.14,0.73,7.38,2.23l1.13,0.76l1.98-4.16L29.07,33c-2.68-1.87-5.94-2.82-9.68-2.82
					c-9.02,0-14.84,5.41-14.84,13.78c0,8.33,5.9,13.71,15.02,13.71c4.32,0,8.14-1.24,11.03-3.58l0.44-0.35V42.11H17.32V46.56z"/>
				<polygon class="st0" points="45.36,40.3 43.12,38.7 43.97,38.68 36.68,30.18 30.51,30.18 42.93,44.71 42.93,57.67 47.68,57.67 
					47.68,44.71 60.1,30.18 54,30.18 				"/>
				<polygon class="st0" points="76.39,49.87 66.83,30.18 61.37,30.18 61.37,57.67 66.05,57.67 66.05,40.77 65.18,39.15 
					66.84,40.77 75.02,57.67 77.64,57.67 85.83,40.77 85.78,39.07 86.65,40.77 86.65,57.67 91.41,57.67 91.41,30.18 85.91,30.18 
									"/>
			</g>
		</g>
	</g>
	<polygon class="st0" points="163.76,12.93 245.55,15.81 163.76,18.7 163.76,12.93 	"/>
	<polygon class="st0" points="86.55,18.7 4.76,15.81 86.55,12.93 86.55,18.7 	"/>
	<g>
		<polygon class="st0" points="100.71,18.7 103.76,18.7 103.76,6.14 102.89,4.51 110.2,4.51 110.2,1.67 94.29,1.67 94.29,4.51 
			100.71,4.51 		"/>
		<polygon class="st0" points="115,13.12 114.13,11.5 124.8,11.5 124.8,18.7 127.84,18.7 127.84,1.67 124.8,1.67 124.8,8.66 
			115,8.66 115,1.67 111.96,1.67 111.96,18.7 115,18.7 		"/>
		<polygon class="st0" points="130.63,18.7 149.84,18.7 149.84,15.85 133.67,15.85 133.67,11.5 148.35,11.5 148.35,8.66 
			133.67,8.66 133.67,6.14 132.8,4.51 149.84,4.51 149.84,1.67 130.63,1.67 		"/>
	</g>
</g>
</svg>
