<svg width="161" height="13" viewBox="0 0 161 13" fill="none" xmlns="http://www.w3.org/2000/svg">
<path d="M6.736 12.096C5.88267 12.096 5.09333 11.9573 4.368 11.68C3.65333 11.392 3.02933 10.992 2.496 10.48C1.97333 9.968 1.56267 9.36533 1.264 8.672C0.976 7.97867 0.832 7.22133 0.832 6.4C0.832 5.57867 0.976 4.82133 1.264 4.128C1.56267 3.43467 1.97867 2.832 2.512 2.32C3.04533 1.808 3.66933 1.41333 4.384 1.136C5.10933 0.848 5.89867 0.704 6.752 0.704C7.60533 0.704 8.384 0.837333 9.088 1.104C9.80267 1.37067 10.4107 1.776 10.912 2.32L10.176 3.072C9.70667 2.60267 9.18933 2.26667 8.624 2.064C8.05867 1.86133 7.45067 1.76 6.8 1.76C6.10667 1.76 5.46667 1.87733 4.88 2.112C4.304 2.336 3.79733 2.66133 3.36 3.088C2.93333 3.504 2.59733 3.99467 2.352 4.56C2.11733 5.11467 2 5.728 2 6.4C2 7.06133 2.11733 7.67467 2.352 8.24C2.59733 8.80533 2.93333 9.30133 3.36 9.728C3.79733 10.144 4.304 10.4693 4.88 10.704C5.46667 10.928 6.10133 11.04 6.784 11.04C7.424 11.04 8.02667 10.944 8.592 10.752C9.168 10.56 9.696 10.2347 10.176 9.776L10.848 10.672C10.3147 11.1413 9.69067 11.4987 8.976 11.744C8.26133 11.9787 7.51467 12.096 6.736 12.096ZM9.712 10.528V6.4H10.848V10.672L9.712 10.528ZM20.855 5.808H26.775V6.816H20.855V5.808ZM20.983 10.976H27.719V12H19.799V0.799999H27.479V1.824H20.983V10.976ZM38.2781 12V1.824H34.3421V0.799999H43.3981V1.824H39.4621V12H38.2781ZM60.6771 12V0.799999H61.8611V12H60.6771ZM73.2812 12V1.824H69.3453V0.799999H78.4013V1.824H74.4653V12H73.2812ZM94.7682 12V0.799999H100.288C101.536 0.799999 102.635 1.02933 103.584 1.488C104.534 1.936 105.275 2.576 105.808 3.408C106.342 4.24 106.608 5.232 106.608 6.384C106.608 7.54667 106.342 8.54933 105.808 9.392C105.275 10.224 104.534 10.8693 103.584 11.328C102.635 11.776 101.536 12 100.288 12H94.7682ZM98.5442 9.056H100.128C100.662 9.056 101.126 8.95467 101.52 8.752C101.926 8.54933 102.24 8.25067 102.464 7.856C102.688 7.45067 102.8 6.96 102.8 6.384C102.8 5.81867 102.688 5.33867 102.464 4.944C102.24 4.54933 101.926 4.25067 101.52 4.048C101.126 3.84533 100.662 3.744 100.128 3.744H98.5442V9.056ZM119.459 12.256C118.552 12.256 117.71 12.112 116.931 11.824C116.163 11.536 115.496 11.1307 114.931 10.608C114.366 10.0747 113.923 9.45067 113.603 8.736C113.294 8.02133 113.139 7.24267 113.139 6.4C113.139 5.54667 113.294 4.768 113.603 4.064C113.923 3.34933 114.366 2.73067 114.931 2.208C115.496 1.67467 116.163 1.264 116.931 0.976C117.71 0.688 118.552 0.544 119.459 0.544C120.376 0.544 121.219 0.688 121.987 0.976C122.755 1.264 123.422 1.67467 123.987 2.208C124.552 2.73067 124.99 3.34933 125.299 4.064C125.619 4.768 125.779 5.54667 125.779 6.4C125.779 7.24267 125.619 8.02133 125.299 8.736C124.99 9.45067 124.552 10.0747 123.987 10.608C123.422 11.1307 122.755 11.536 121.987 11.824C121.219 12.112 120.376 12.256 119.459 12.256ZM119.459 9.2C119.811 9.2 120.136 9.136 120.435 9.008C120.744 8.88 121.011 8.69867 121.235 8.464C121.47 8.21867 121.651 7.92533 121.779 7.584C121.907 7.232 121.971 6.83733 121.971 6.4C121.971 5.96267 121.907 5.57333 121.779 5.232C121.651 4.88 121.47 4.58667 121.235 4.352C121.011 4.10667 120.744 3.92 120.435 3.792C120.136 3.664 119.811 3.6 119.459 3.6C119.107 3.6 118.776 3.664 118.467 3.792C118.168 3.92 117.902 4.10667 117.667 4.352C117.443 4.58667 117.267 4.88 117.139 5.232C117.011 5.57333 116.947 5.96267 116.947 6.4C116.947 6.83733 117.011 7.232 117.139 7.584C117.267 7.92533 117.443 8.21867 117.667 8.464C117.902 8.69867 118.168 8.88 118.467 9.008C118.776 9.136 119.107 9.2 119.459 9.2ZM132.749 12V0.799999H135.853L141.549 7.616H140.109V0.799999H143.789V12H140.685L134.989 5.184H136.429V12H132.749ZM154.665 4.96H159.657V7.68H154.665V4.96ZM154.921 9.152H160.521V12H151.209V0.799999H160.313V3.648H154.921V9.152Z" fill="white"/>
</svg>
