<svg width="13" height="24" viewBox="0 0 13 24" fill="none" xmlns="http://www.w3.org/2000/svg">
<path d="M0 11.9701C0 8.56266 0 5.15528 0 1.74789C0 0.76172 0.739624 0.00581466 1.72579 0.00348879C4.80756 -0.00116293 7.887 -0.00116293 10.9688 0.00348879C11.9898 0.00348879 12.6992 0.73381 12.7341 1.78277C12.7341 1.82929 12.7341 1.87348 12.7341 1.92C12.7341 8.65337 12.7341 15.3844 12.7341 22.1178C12.7341 22.6388 12.5969 23.0993 12.2271 23.4831C11.8828 23.8389 11.4502 23.9924 10.9734 23.9948C7.90793 24.0017 4.84245 24.0017 1.77696 23.9948C0.897783 23.9948 0.218631 23.4598 0.0488429 22.6597C0.013955 22.4923 0.00232547 22.3155 0.00232547 22.1434C-3.90336e-07 18.7523 0.00232547 15.3588 0.00232547 11.9677L0 11.9701ZM0.734973 11.9863C0.734973 15.41 0.734973 18.8314 0.734973 22.255C0.734973 22.8388 1.16526 23.2644 1.74905 23.2668C1.91651 23.2668 2.0863 23.2668 2.25376 23.2668C5.15644 23.2668 8.05912 23.2668 10.9618 23.2691C11.1827 23.2691 11.3851 23.2272 11.5665 23.0993C11.8875 22.8714 11.9991 22.5527 11.9991 22.1713C11.9991 15.3914 11.9991 8.61383 11.9991 1.83394C11.9991 1.79208 11.9991 1.75254 11.9991 1.71067C11.9759 1.14549 11.5549 0.738461 10.9897 0.738461C10.4501 0.738461 9.90818 0.745439 9.36858 0.736136C9.14762 0.731484 8.99644 0.819867 8.88712 0.998958C8.7592 1.20829 8.62663 1.41529 8.51266 1.62927C8.38474 1.87116 8.18936 1.96419 7.92654 1.96419C6.88688 1.96419 5.84489 1.96187 4.80523 1.96419C4.55171 1.96419 4.36332 1.87348 4.23772 1.6502C4.10282 1.41529 3.96327 1.18503 3.82139 0.954767C3.72836 0.805911 3.59346 0.73381 3.41204 0.736136C2.86081 0.740788 2.30958 0.752417 1.75835 0.73381C1.2862 0.717529 0.72567 1.11293 0.727995 1.76417C0.744276 5.17156 0.734973 8.57895 0.734973 11.9863Z" fill="white"/>
</svg>
