<svg width="24" height="24" viewBox="0 0 24 24" fill="none" xmlns="http://www.w3.org/2000/svg">
<path d="M10.7536 0.0664341C12.204 -0.0860505 13.6805 0.0218046 15.0901 0.412314C19.1142 1.52805 22.4279 4.91619 23.4544 8.96632C24.4809 13.0165 23.1829 17.5724 20.1741 20.4696C17.1653 23.3668 12.5648 24.4974 8.55927 23.3259C7.58113 23.0395 6.61416 22.623 5.59512 22.6527C3.92894 22.7011 2.47476 23.9358 0.808589 23.9991C-1.18115 24.0697 1.11356 20.0828 1.22513 19.0787C1.37762 17.684 0.767678 16.3377 0.403203 14.9839C-0.682784 10.9486 0.551968 6.37781 3.51612 3.43597C5.44263 1.52434 8.05718 0.349088 10.7536 0.0664341ZM2.74626 21.2023C3.92894 20.8973 4.99633 20.6333 6.05257 20.3357C6.35382 20.2502 6.58069 20.2799 6.84846 20.4324C8.97953 21.6635 11.2482 22.08 13.6954 21.6672C17.9315 20.9568 21.5167 17.0517 21.7882 12.7487C22.0002 9.35683 20.8398 6.52657 18.2588 4.29509C14.4467 0.996218 8.37331 1.28259 4.85873 4.90875C1.69374 8.17043 1.02802 13.0499 3.38967 16.9587C3.65373 17.3976 3.70951 17.7732 3.55331 18.2604C3.25578 19.1902 3.02891 20.146 2.74626 21.2023Z" fill="white"/>
<path d="M15.012 17.6505C13.7772 17.6282 12.6578 17.1596 11.6053 16.5943C9.25848 15.3335 7.51793 13.433 6.29061 11.0862C5.46125 9.50188 5.67696 8.04026 6.78526 6.82038C7.15717 6.41127 8.05348 6.19556 8.54069 6.42987C8.67458 6.4931 8.79731 6.6493 8.86054 6.79063C9.21013 7.5828 9.5523 8.38242 9.85726 9.19319C9.92421 9.36427 9.87958 9.63577 9.78288 9.79941C9.60064 10.1155 9.3589 10.3982 9.11344 10.6697C8.89773 10.9077 8.88657 11.1197 9.05393 11.3875C10.0209 12.9607 11.3263 14.1248 13.0483 14.8202C13.3495 14.943 13.5578 14.9021 13.7512 14.6603C14.0227 14.3219 14.3091 13.9946 14.562 13.6376C14.7591 13.3623 14.9711 13.2656 15.2835 13.4144C16.0943 13.8012 16.9162 14.1768 17.7158 14.5897C17.8497 14.6603 17.9575 14.9095 17.9613 15.0769C17.9613 15.9062 17.6786 16.6054 16.9459 17.0778C16.3546 17.4571 15.7298 17.7026 15.012 17.6542V17.6505Z" fill="white"/>
</svg>
